
<svg version="1.1" xmlns="http://www.w3.org/2000/svg" width="1024" height="1024" viewBox="0 0 1024 1024" preserveAspectRatio="xMidYMid meet">
<path d="M0 0 C337.92 0 675.84 0 1024 0 C1024 337.92 1024 675.84 1024 1024 C686.08 1024 348.16 1024 0 1024 C0 686.08 0 348.16 0 0 Z " fill="#FEFEFE" transform="translate(0,0)" />
<path d="M0 0 C8.14074734 4.41835898 14.51203797 10.01736977 21.015625 16.51171875 C21.758125 17.24261719 22.500625 17.97351563 23.265625 18.7265625 C34.5181747 30.5285531 41.47574803 46.76598339 44.4921875 62.62890625 C46.97999821 81.08326334 46.97999821 81.08326334 43.6796875 88.5234375 C41.65445423 91.17674944 39.50571908 93.28828633 37.015625 95.51171875 C36.03432467 96.4665337 35.0566425 97.42507701 34.08203125 98.38671875 C16.17902423 115.75930766 -4.94852162 129.9400993 -26.984375 141.51171875 C-27.97147461 142.03306396 -27.97147461 142.03306396 -28.97851562 142.56494141 C-42.31194655 149.55694105 -56.04695951 154.93920612 -70.296875 159.76171875 C-71.29912109 160.10332031 -72.30136719 160.44492187 -73.33398438 160.796875 C-81.53232406 163.52061194 -89.29876186 165.66510015 -97.984375 165.51171875 C-115.00728458 133.58046414 -115.00728458 133.58046414 -120.984375 116.51171875 C-121.27135254 115.69493652 -121.55833008 114.8781543 -121.85400391 114.03662109 C-128.83723539 93.83274676 -132.32234911 72.58922744 -126.37890625 51.6171875 C-122.89819748 40.72794998 -117.08137432 30.43627154 -109.984375 21.51171875 C-109.34242188 20.69445312 -108.70046875 19.8771875 -108.0390625 19.03515625 C-96.76057544 5.59253145 -80.80283315 -3.61156939 -64.046875 -8.42578125 C-41.789062 -14.20809238 -20.27155321 -10.10924316 0 0 Z " fill="#06A6AB" transform="translate(265.984375,400.48828125)" />
<path d="M0 0 C1.39430986 -0.01141033 2.78857996 -0.03168418 4.18261719 -0.06152344 C15.64532228 -0.30648812 26.10150723 0.97845923 36.11816406 7.04516602 C41.27533566 10.80619723 45.93561644 15.15878933 48.41894531 21.11547852 C50.50319326 29.15613174 50.11099767 38.47243664 47.24316406 46.29516602 C46.92476563 47.18333008 46.60636719 48.07149414 46.27832031 48.98657227 C35.03826438 78.0139221 10.30604661 101.29155285 -13.86523438 119.84057617 C-15.13235089 120.8149541 -16.39600549 121.79384971 -17.65625 122.77709961 C-27.90697818 130.77391831 -38.53651533 137.73743829 -49.75683594 144.29516602 C-50.38960449 144.67205566 -51.02237305 145.04894531 -51.67431641 145.43725586 C-69.41528674 155.99656771 -88.37191679 165.18411527 -107.75683594 172.29516602 C-96.7995433 172.82630947 -86.49023497 171.34146152 -75.75683594 169.29516602 C-74.46003906 169.0515332 -73.16324219 168.80790039 -71.82714844 168.55688477 C-45.33816597 162.74693123 -17.75777062 148.84885516 1.24316406 129.29516602 C-2.71683594 127.64516602 -6.67683594 125.99516602 -10.75683594 124.29516602 C-10.75683594 123.30516602 -10.75683594 122.31516602 -10.75683594 121.29516602 C-4.75097656 118.89282227 1.25488281 116.49047852 7.26074219 114.08813477 C7.91271576 113.82728088 8.56468933 113.566427 9.23641968 113.29766846 C10.55836348 112.76902137 11.88048748 112.24082466 13.20278931 111.71307373 C16.64494446 110.33856718 20.08325569 108.95544295 23.51611328 107.55786133 C24.20386337 107.27915192 24.89161346 107.0004425 25.60020447 106.71328735 C26.91609658 106.17978444 28.23089868 105.64358291 29.54444885 105.1043396 C34.01835995 103.29516602 34.01835995 103.29516602 36.24316406 103.29516602 C35.57147107 109.0936085 34.19148183 114.52395641 32.59082031 120.13110352 C32.33062607 121.0510611 32.07043182 121.97101868 31.80235291 122.91885376 C31.2541624 124.85079554 30.7035473 126.78205082 30.15063477 128.71264648 C29.30313093 131.67903235 28.46912461 134.64900496 27.63574219 137.61938477 C27.10075038 139.49852337 26.56497103 141.37743799 26.02832031 143.25610352 C25.65478172 144.59347061 25.65478172 144.59347061 25.2736969 145.95785522 C25.03682663 146.77605743 24.79995636 147.59425964 24.5559082 148.43725586 C24.35018692 149.1600473 24.14446564 149.88283875 23.93251038 150.62753296 C23.70502609 151.17785187 23.47754181 151.72817078 23.24316406 152.29516602 C22.58316406 152.62516602 21.92316406 152.95516602 21.24316406 153.29516602 C18.93316406 149.00516602 16.62316406 144.71516602 14.24316406 140.29516602 C9.76919159 142.084755 7.74095807 143.35959626 4.24316406 146.42016602 C-1.73186343 151.41266893 -8.01304709 155.4228763 -14.75683594 159.29516602 C-15.88605469 159.95387695 -17.01527344 160.61258789 -18.17871094 161.29125977 C-27.03751467 166.31516296 -36.25489385 169.95267028 -45.81152344 173.43579102 C-46.63724854 173.74693848 -47.46297363 174.05808594 -48.3137207 174.37866211 C-49.91683696 174.98005098 -51.52942995 175.55687268 -53.15112305 176.10620117 C-58.69730943 178.18931435 -61.53448339 180.86107774 -64.91674805 185.69360352 C-65.73477905 186.91950195 -65.73477905 186.91950195 -66.56933594 188.17016602 C-67.77101315 189.87875218 -68.9767993 191.5844553 -70.18652344 193.28735352 C-70.78174805 194.13136719 -71.37697266 194.97538086 -71.99023438 195.8449707 C-74.58785442 199.44775052 -77.33759811 202.89566174 -80.19433594 206.29516602 C-80.65364502 206.86348145 -81.1129541 207.43179688 -81.58618164 208.01733398 C-84.98167627 212.00475998 -87.91577901 213.62681112 -92.75683594 215.29516602 C-95.81933594 215.73266602 -95.81933594 215.73266602 -98.75683594 215.29516602 C-103.77615003 212.41798597 -107.20344033 208.903296 -110.88183594 204.54516602 C-111.43444092 203.89990967 -111.9870459 203.25465332 -112.55639648 202.58984375 C-118.62688005 195.41469589 -124.22092313 187.88585006 -129.75683594 180.29516602 C-134.44297587 180.83386291 -139.01318843 181.52585167 -143.6418457 182.45068359 C-151.88308079 184.0365244 -159.9289663 184.59151081 -168.31933594 184.60766602 C-169.8169043 184.61552124 -169.8169043 184.61552124 -171.34472656 184.62353516 C-181.4840573 184.5276088 -190.07871854 182.71180552 -198.75683594 177.29516602 C-205.38432596 172.22336545 -208.17400399 166.04366185 -210.75683594 158.29516602 C-212.13236235 146.26913512 -208.22430027 135.64984396 -202.69287109 125.20117188 C-197.64571584 116.07746815 -191.54145746 105.18508388 -182.75683594 99.29516602 C-182.02636719 100.92016602 -182.02636719 100.92016602 -181.75683594 103.29516602 C-183.26855469 106.10766602 -183.26855469 106.10766602 -185.44433594 109.29516602 C-190.18802027 116.58010982 -193.76708443 124.15183413 -194.25683594 132.98266602 C-193.93013167 139.19004713 -191.33266385 144.26910155 -187.56933594 149.10766602 C-181.75438708 153.63040402 -175.14290039 156.12100642 -167.80761719 156.49829102 C-156.78629621 156.68127591 -146.50013895 155.73477448 -135.75683594 153.29516602 C-134.561875 153.02833008 -133.36691406 152.76149414 -132.13574219 152.48657227 C-96.49865597 143.70415781 -62.57940524 125.8248734 -33.75683594 103.29516602 C-33.12793457 102.81289551 -32.4990332 102.330625 -31.85107422 101.83374023 C-11.38328252 86.09515258 10.7710973 66.05503612 19.39941406 40.92797852 C20.314483 36.98809838 20.61050879 33.25550932 20.61816406 29.23266602 C20.64265625 28.55139648 20.66714844 27.87012695 20.69238281 27.16821289 C20.71374156 23.46247075 20.22858157 21.26846834 18.44238281 17.99829102 C14.13349837 12.70211333 9.57469003 9.43907922 2.99316406 7.48266602 C-2.8638129 6.08619184 -8.7547192 5.59893807 -14.75683594 5.29516602 C-15.08683594 3.97516602 -15.41683594 2.65516602 -15.75683594 1.29516602 C-10.68588328 -0.39515154 -5.30706723 0.03011189 0 0 Z " fill="#F28528" transform="translate(318.7568359375,418.704833984375)" />
<path d="M0 0 C7.86070953 4.17788863 14.07186393 9.40926273 18.26098633 17.32250977 C22.73001725 26.31827451 23.92251764 33.92921523 23.125 43.9375 C20.90423078 54.33069997 15.78085447 63.05603257 8.109375 70.37109375 C1.58663965 75.51994586 -6.40983073 78.49701082 -14.63671875 79.30859375 C-25.60131761 79.49406458 -33.83219035 77.50770643 -43.125 71.3125 C-49.73251525 65.94389386 -55.38461978 58.02484537 -58.24609375 49.9921875 C-60.1571644 40.70984432 -60.26812536 30.31449097 -56.9375 21.375 C-53.06276314 13.50409577 -46.90256172 7.10388099 -39.875 1.9375 C-38.0526888 0.97852489 -36.19673053 0.08073864 -34.3125 -0.75 C-33.38308594 -1.16636719 -32.45367187 -1.58273437 -31.49609375 -2.01171875 C-21.0901876 -6.18338604 -9.97078234 -4.48994857 0 0 Z " fill="#FBFEFE" transform="translate(241.875,439.0625)" />
<path d="M0 0 C10.085625 -0.0928125 10.085625 -0.0928125 20.375 -0.1875 C22.47665527 -0.21481201 24.57831055 -0.24212402 26.74365234 -0.27026367 C28.44107492 -0.27903935 30.13850389 -0.28668072 31.8359375 -0.29296875 C32.6916333 -0.30831665 33.5473291 -0.32366455 34.42895508 -0.33947754 C42.40749 -0.34287459 49.62836511 1.18602251 56.3125 5.6875 C61.04384809 9.51855108 64.08399225 14.25197675 66 20 C66.62519842 27.30764708 66.47347393 34.023419 63.4140625 40.76953125 C60.63634093 45.15096499 56.64211548 48.67894226 52 51 C53.39578628 54.97262248 55.27658117 57.96198392 57.8125 61.3125 C61.11652475 65.76601241 64.21065275 70.20580941 67 75 C67 75.66 67 76.32 67 77 C54.02055552 78.29532762 54.02055552 78.29532762 48 77 C43.96199493 74.00909142 42.16750202 70.46382198 40 66 C38.8458448 64.09652399 37.68004645 62.20003425 36.5 60.3125 C35.675 58.889375 34.85 57.46625 34 56 C28.72 55.67 23.44 55.34 18 55 C18 62.26 18 69.52 18 77 C12.06 77 6.12 77 0 77 C0 51.59 0 26.18 0 0 Z " fill="#0BA3A8" transform="translate(402,475)" />
<path d="M0 0 C6.23301046 2.60630812 11.80489263 7.71784956 15.484375 13.32421875 C19.05561728 20.32437119 19.65154755 26.32537287 19 34.0625 C17.75518855 39.68444735 15.94486658 44.56182954 12.875 49.4375 C7.22574189 54.59551827 0.6113076 58.75020559 -7 60.0625 C-15.61620241 60.73659834 -23.57456889 60.17243462 -31.1875 55.80859375 C-37.45274903 51.45377103 -42.12999545 45.8997793 -44.875 38.75 C-46.63048898 32.63206834 -46.88250978 26.61355125 -45.34375 20.421875 C-42.73710098 13.0962924 -38.76281392 7.82701635 -32.51171875 3.234375 C-22.86038839 -2.47899899 -10.77428314 -2.75576691 0 0 Z " fill="#0DA3A8" transform="translate(519,492.9375)" />
<path d="M0 0 C5.94 0 11.88 0 18 0 C18.33 14.52 18.66 29.04 19 44 C22.196875 40.37 25.39375 36.74 28.6875 33 C38.09944182 22.97400333 38.09944182 22.97400333 44.10302734 20.95800781 C50.21808389 20.11353356 55.98042378 20.78131279 62 22 C62 22.66 62 23.32 62 24 C60.53125 25.42993164 60.53125 25.42993164 58.5 27.09765625 C53.99691758 30.92666615 49.99912859 35.09252232 46 39.4375 C44.98099609 40.53481445 44.98099609 40.53481445 43.94140625 41.65429688 C42.29066242 43.43291523 40.64362467 45.21480532 39 47 C42.4157004 52.246448 46.09201528 57.27890303 49.8125 62.3125 C50.40353516 63.11623047 50.99457031 63.91996094 51.60351562 64.74804688 C55.22633043 69.65879803 58.92581037 74.49552017 62.72143555 79.27416992 C63.14336182 79.84369385 63.56528809 80.41321777 64 81 C64 81.33 64 81.66 64 82 C57.0501943 82.67967598 49.9005885 83.33010149 43 82 C38.6110164 79.09601085 36.5509961 75.52829658 34 71 C32.54307021 68.94240617 31.06457031 66.8998757 29.5625 64.875 C28.92441406 63.96492187 28.28632812 63.05484375 27.62890625 62.1171875 C26.17096107 59.90373333 26.17096107 59.90373333 24 59 C23.5978125 59.8971875 23.5978125 59.8971875 23.1875 60.8125 C22 63 22 63 20.46875 64.125 C18.65971269 66.10876539 18.65971269 66.10876539 18.48828125 69.79296875 C18.41279099 71.25703899 18.35764745 72.72218019 18.3125 74.1875 C18.209375 76.765625 18.10625 79.34375 18 82 C12.06 82 6.12 82 0 82 C0 54.94 0 27.88 0 0 Z " fill="#F38426" transform="translate(852,470)" />
<path d="M0 0 C7.14898964 2.44343486 13.12258294 5.6144683 18.1875 11.3125 C17.79540589 13.95767219 17.27931072 15.20913416 15.48046875 17.234375 C14.78566406 17.83765625 14.09085938 18.4409375 13.375 19.0625 C12.68792969 19.67609375 12.00085938 20.2896875 11.29296875 20.921875 C9.1875 22.3125 9.1875 22.3125 5.1875 22.3125 C4.445 21.714375 3.7025 21.11625 2.9375 20.5 C-1.24184205 17.17552337 -5.1855652 15.63033613 -10.4921875 14.98828125 C-15.9699914 14.76825866 -20.32214437 15.26750746 -25.09765625 18.05078125 C-28.98183916 20.9086197 -31.27059359 24.35949218 -33.625 28.5 C-35.48539381 34.47284328 -35.62745046 39.93627666 -34.15625 46.03125 C-32.31289741 51.30705223 -29.99444247 54.71570861 -25.59375 58.15625 C-20.15391964 61.68736795 -15.76621358 61.72684718 -9.3046875 61.6328125 C-4.72773104 61.21300218 -1.48491945 60.04374663 2.1875 57.3125 C4.60822212 55.23113345 4.60822212 55.23113345 6.1875 53.3125 C9.42611303 54.75674635 11.80719163 56.57022247 14.4375 58.9375 C15.14390625 59.56914063 15.8503125 60.20078125 16.578125 60.8515625 C17.37476563 61.57472656 17.37476563 61.57472656 18.1875 62.3125 C17.79083074 64.79032439 17.32146523 66.15300093 15.69140625 68.09375 C8.97571535 74.03923088 2.08523767 77.130595 -6.8125 78.3125 C-18.01367528 79.0026198 -26.67020579 77.89955307 -36.4375 72.3125 C-43.92824069 67.26922904 -48.75749258 60.36221231 -52.3125 52.125 C-54.88084968 44.11037311 -54.9033688 35.31333675 -53.1171875 27.125 C-50.23182044 18.39615849 -45.01187901 11.72490878 -38.0234375 5.84765625 C-34.24782177 3.22607148 -30.15158553 1.74752672 -25.8125 0.3125 C-24.84699219 -0.04457031 -23.88148438 -0.40164063 -22.88671875 -0.76953125 C-15.29995383 -3.03495661 -7.51669646 -2.15886515 0 0 Z " fill="#F1852A" transform="translate(705.8125,474.6875)" />
<path d="M0 0 C4.56416525 2.85461926 8.6158749 6.1636632 11.26904297 10.93041992 C12.53444324 15.2835268 12.37000857 19.47900561 12.3203125 23.98828125 C12.3174826 24.95783249 12.31465271 25.92738373 12.31173706 26.92631531 C12.30056991 30.01350405 12.27547152 33.10039939 12.25 36.1875 C12.23996573 38.28450101 12.23084066 40.38150658 12.22265625 42.47851562 C12.20064188 47.6107896 12.16613571 52.7428451 12.125 57.875 C6.845 57.875 1.565 57.875 -3.875 57.875 C-4.205 56.225 -4.535 54.575 -4.875 52.875 C-5.926875 53.803125 -5.926875 53.803125 -7 54.75 C-11.56528605 58.12434186 -15.52766079 59.01349271 -21.125 59.25 C-26.95954379 59.11505137 -31.85675718 57.90173736 -36.875 54.875 C-39.78880475 52.21585705 -42.1095212 49.4059576 -43.875 45.875 C-44.3988576 40.61924835 -44.54005372 36.22973905 -42.1875 31.4375 C-37.96874821 26.76266693 -34.24670191 24.11111258 -28.1875 22.40234375 C-20.83212566 21.23138203 -13.29827892 21.66922122 -5.875 21.875 C-6.57579254 18.42088501 -6.57579254 18.42088501 -7.875 14.875 C-9.49088681 13.28489958 -9.49088681 13.28489958 -11.875 12.875 C-15.40683992 12.51947138 -15.40683992 12.51947138 -19.25 12.5625 C-20.53648437 12.54574219 -21.82296875 12.52898437 -23.1484375 12.51171875 C-27.08984108 12.89594363 -29.39425746 14.09540909 -32.875 15.875 C-35.109375 15.8046875 -35.109375 15.8046875 -36.875 14.875 C-38.140625 13.1328125 -38.140625 13.1328125 -39.125 11 C-39.62773438 9.95199219 -39.62773438 9.95199219 -40.140625 8.8828125 C-40.875 6.875 -40.875 6.875 -40.875 3.875 C-39.31648245 3.05488688 -37.75298284 2.24423787 -36.1875 1.4375 C-35.31738281 0.98503906 -34.44726562 0.53257812 -33.55078125 0.06640625 C-24.41791183 -4.00005386 -9.02792235 -4.31349429 0 0 Z " fill="#0BA3A8" transform="translate(630.875,494.125)" />
<path d="M0 0 C5.81922041 2.68025917 10.28805365 6.83637735 13.83984375 12.1640625 C13.83984375 12.8240625 13.83984375 13.4840625 13.83984375 14.1640625 C7.89984375 17.6290625 7.89984375 17.6290625 1.83984375 21.1640625 C-6.03515625 15.2890625 -6.03515625 15.2890625 -7.16015625 14.1640625 C-12.12616317 13.5935796 -16.07334195 13.63053548 -20.59765625 15.8515625 C-23.22248636 18.22031162 -24.58343153 20.01962291 -26.16015625 23.1640625 C-26.98900894 28.71214854 -26.88422575 33.63547133 -24.47265625 38.7265625 C-22.02402779 41.30754926 -20.46880064 42.84060474 -17.16015625 44.1640625 C-12.80664832 44.73501436 -9.30775524 44.68796639 -5.28515625 42.8515625 C-3.15163469 41.27880234 -3.15163469 41.27880234 -1.72265625 39.4140625 C-1.20703125 39.0015625 -0.69140625 38.5890625 -0.16015625 38.1640625 C5.10121655 38.28642001 9.32108822 40.69824413 13.83984375 43.1640625 C13.47082542 45.99320303 13.03006736 47.88419927 11.4140625 50.26171875 C5.93885018 55.96364793 0.58812738 58.62594168 -7.16015625 60.1640625 C-14.27463128 61.0286063 -20.30566702 60.41671809 -26.84375 57.42578125 C-33.27032187 53.9253045 -38.6884881 49.73062861 -42.16015625 43.1640625 C-45.24413157 35.61102821 -45.08290901 26.61669245 -43.73046875 18.625 C-41.98782136 13.22494451 -38.33421581 8.91350564 -34.16015625 5.1640625 C-24.1885011 -1.62944286 -11.67400614 -3.08805601 0 0 Z " fill="#F18428" transform="translate(832.16015625,492.8359375)" />
<path d="M0 0 C5.94 0 11.88 0 18 0 C18 4.95 18 9.9 18 15 C22.62 15 27.24 15 32 15 C32 19.62 32 24.24 32 29 C27.05 29 22.1 29 17 29 C17.11374782 33.25057651 17.24050863 37.50007273 17.375 41.75 C17.4059375 42.9565625 17.436875 44.163125 17.46875 45.40625 C17.50742187 46.56640625 17.54609375 47.7265625 17.5859375 48.921875 C17.63306885 50.52434082 17.63306885 50.52434082 17.68115234 52.15917969 C17.87006341 55.31456161 17.87006341 55.31456161 20 59 C23.96 59 27.92 59 32 59 C36 68.625 36 68.625 36 72 C29.29464031 75.0947814 23.3588704 75.86176246 16 75 C11.229363 73.72830911 7.39692746 71.80837917 4.0625 68.125 C0.52703039 62.76822786 -0.24969604 58.21443631 -0.1953125 51.8515625 C-0.1924826 51.19417084 -0.18965271 50.53677917 -0.18673706 49.85946655 C-0.17563447 47.78111767 -0.15054986 45.70321634 -0.125 43.625 C-0.11495731 42.20703752 -0.10583373 40.78906821 -0.09765625 39.37109375 C-0.07572805 35.91391963 -0.04126818 32.45700358 0 29 C-2.97 29 -5.94 29 -9 29 C-9 24.38 -9 19.76 -9 15 C-6.03 15 -3.06 15 0 15 C0 10.05 0 5.1 0 0 Z " fill="#10A4A9" transform="translate(548,478)" />
<path d="M0 0 C0.99 0.495 0.99 0.495 2 1 C1.67 1.61875 1.34 2.2375 1 2.875 C-0.14193235 4.91018344 -0.14193235 4.91018344 0 7 C4.29 8.98 8.58 10.96 13 13 C-0.08151817 26.08151817 -15.3330209 35.26018912 -32 43 C-32.64211426 43.30679688 -33.28422852 43.61359375 -33.94580078 43.9296875 C-51.94953232 52.44269216 -72.6219102 57.30545002 -92.5625 57.0625 C-93.28501953 57.05798828 -94.00753906 57.05347656 -94.75195312 57.04882812 C-96.50133944 57.03724279 -98.25068199 57.01931762 -100 57 C-97.2722423 55.18149487 -94.88295635 54.04678304 -91.86328125 52.8203125 C-69.95444456 43.80701165 -48.93093721 33.85096134 -29 21 C-27.42798828 20.00613281 -27.42798828 20.00613281 -25.82421875 18.9921875 C-16.83894519 13.18033261 -8.4384294 6.56790086 0 0 Z " fill="#FEFAF3" transform="translate(308,535)" />
<path d="M0 0 C5.94 0 11.88 0 18 0 C18 27.06 18 54.12 18 82 C12.06 82 6.12 82 0 82 C0 54.94 0 27.88 0 0 Z " fill="#F1882F" transform="translate(732,470)" />
<path d="M0 0 C5.61 0 11.22 0 17 0 C17 19.47 17 38.94 17 59 C11.39 59 5.78 59 0 59 C0 39.53 0 20.06 0 0 Z " fill="#F48324" transform="translate(762,493)" />
<path d="M0 0 C3.12209971 0.51202435 5.32128968 1.58569376 7.953125 3.3203125 C9.99401212 5.58183606 11.59387012 7.60180273 12.953125 10.3203125 C13.10164344 12.25390836 13.17443333 14.19373347 13.203125 16.1328125 C13.22890625 17.17050781 13.2546875 18.20820312 13.28125 19.27734375 C12.90919501 22.72771082 11.95368334 24.51855967 9.953125 27.3203125 C7.57072151 30.00051642 6.38699677 31.17568858 2.953125 32.3203125 C-1.73818623 32.86539819 -5.15018148 32.76865926 -9.421875 30.6328125 C-12.60114351 27.83202834 -14.18192624 25.05021002 -16.046875 21.3203125 C-16.56800671 16.09190916 -16.68961034 11.67994496 -14.421875 6.8828125 C-10.04955543 2.16530981 -6.48293705 -0.37116052 0 0 Z " fill="#F6FDFD" transform="translate(507.046875,505.6796875)" />
<path d="M0 0 C3.34125 -0.061875 6.6825 -0.12375 10.125 -0.1875 C11.68758545 -0.22846802 11.68758545 -0.22846802 13.28173828 -0.27026367 C18.60135379 -0.31784246 22.44549533 -0.08248876 27 3 C29.03088894 5.75152695 29.92943833 7.78762224 30.12890625 11.21484375 C29.89866973 15.40793914 29.34852104 17.54498642 26.75 20.9375 C23.4833239 23.38750708 20.96006388 24.85905602 16.81689453 25.15698242 C14.26991438 25.19664478 11.73445125 25.17400068 9.1875 25.125 C6.155625 25.08375 3.12375 25.0425 0 25 C0 16.75 0 8.5 0 0 Z " fill="#F7FEFE" transform="translate(420,490)" />
<path d="M0 0 C3.4481087 0.19070257 5.86161556 0.66709331 8.6875 2.6875 C11.0625 5.625 11.0625 5.625 11.625 9.125 C11.03838435 12.77505291 10.36114977 14.75168779 8.0625 17.625 C5.51760893 19.5336683 3.83805871 19.64540375 0.625 19.9375 C-3.17677362 19.60401109 -4.94501736 18.93348661 -7.9375 16.625 C-9.9375 13.625 -9.9375 13.625 -10.375 9.75 C-10.26072614 6.49018773 -9.8811429 5.53482864 -8.0625 2.625 C-4.89977372 0.60085518 -3.62968767 0.2080364 0 0 Z " fill="#EE872F" transform="translate(769.9375,465.375)" />
<path d="M0 0 C0.76892578 0.03351562 1.53785156 0.06703125 2.33007812 0.1015625 C3.5124707 0.12863281 3.5124707 0.12863281 4.71875 0.15625 C6.65222073 0.20312202 8.58506097 0.2748584 10.51757812 0.3515625 C10.66362693 4.22456036 10.65472731 6.08742333 8.83007812 9.6015625 C6.51757812 12.3515625 6.51757812 12.3515625 4.20507812 13.7265625 C-0.31543218 14.77784397 -3.9726361 14.90952681 -8.35742188 13.2890625 C-9.05867187 12.6496875 -9.75992188 12.0103125 -10.48242188 11.3515625 C-11.29492188 7.6640625 -11.29492188 7.6640625 -11.48242188 4.3515625 C-7.71719489 0.51842561 -5.13391999 -0.08813597 0 0 Z " fill="#EFFCFC" transform="translate(615.482421875,526.6484375)" />
<path d="M0 0 C5.61 0 11.22 0 17 0 C17 19.47 17 38.94 17 59 C11.39 59 5.78 59 0 59 C0 39.53 0 20.06 0 0 Z M1 1 C1 19.48 1 37.96 1 57 C5.62 57 10.24 57 15 57 C15 38.52 15 20.04 15 1 C10.38 1 5.76 1 1 1 Z " fill="#DF893E" transform="translate(762,493)" />
<path d="M0 0 C5.94 0 11.88 0 18 0 C18 0.33 18 0.66 18 1 C12.39 1 6.78 1 1 1 C1.33 15.52 1.66 30.04 2 45 C2.33 45 2.66 45 3 45 C3.33 56.22 3.66 67.44 4 79 C7.96 79.33 11.92 79.66 16 80 C15.98839844 79.01257813 15.97679687 78.02515625 15.96484375 77.0078125 C15.95582031 75.72648438 15.94679688 74.44515625 15.9375 73.125 C15.92589844 71.84882812 15.91429687 70.57265625 15.90234375 69.2578125 C16 66 16 66 17 64 C18.485 64.495 18.485 64.495 20 65 C19.67 65.33 19.34 65.66 19 66 C18.76304852 68.69422605 18.57831398 71.36334611 18.4375 74.0625 C18.293125 76.681875 18.14875 79.30125 18 82 C12.06 82 6.12 82 0 82 C0 54.94 0 27.88 0 0 Z " fill="#F1A563" transform="translate(852,470)" />
<path d="M0 0 C1.41570123 -0.08651611 2.835595 -0.10704904 4.25390625 -0.09765625 C5.53491211 -0.09282227 5.53491211 -0.09282227 6.84179688 -0.08789062 C7.73962891 -0.07951172 8.63746094 -0.07113281 9.5625 -0.0625 C10.46419922 -0.05798828 11.36589844 -0.05347656 12.29492188 -0.04882812 C14.53001314 -0.03700225 16.76497437 -0.0205222 19 0 C19 0.33 19 0.66 19 1 C13.39 1 7.78 1 2 1 C2 20.47 2 39.94 2 60 C1.34 60 0.68 60 0 60 C-1.30437128 57.39125744 -1.12708233 55.47760523 -1.12939453 52.55639648 C-1.13254669 51.41859238 -1.13569885 50.28078827 -1.13894653 49.10850525 C-1.1369223 47.87515945 -1.13489807 46.64181366 -1.1328125 45.37109375 C-1.13376923 44.11112076 -1.13472595 42.85114777 -1.13571167 41.55299377 C-1.13639317 38.88563626 -1.13504013 36.21836992 -1.13037109 33.55102539 C-1.12466812 30.12536938 -1.12795763 26.69979161 -1.13394356 23.27413845 C-1.1384166 20.01478736 -1.13528928 16.75544585 -1.1328125 13.49609375 C-1.13483673 12.26072372 -1.13686096 11.0253537 -1.13894653 9.75254822 C-1.13579437 8.61789627 -1.13264221 7.48324432 -1.12939453 6.31420898 C-1.12859894 5.30986313 -1.12780334 4.30551727 -1.12698364 3.27073669 C-1.08507904 2.52139359 -1.04317444 1.77205048 -1 1 C-0.67 0.67 -0.34 0.34 0 0 Z " fill="#FCE9D1" transform="translate(760,492)" />
<path d="M0 0 C5.61 0 11.22 0 17 0 C17.33 14.19 17.66 28.38 18 43 C19.32 42.01 20.64 41.02 22 40 C21.01 42.475 21.01 42.475 20 45 C18.68 45 17.36 45 16 45 C15.67 30.81 15.34 16.62 15 2 C8.07 1.505 8.07 1.505 1 1 C1 27.07 1 53.14 1 80 C0.67 80 0.34 80 0 80 C0 53.6 0 27.2 0 0 Z " fill="#DA8134" transform="translate(853,471)" />
<path d="M0 0 C0.33 0 0.66 0 1 0 C1 1.65 1 3.3 1 5 C-0.02770508 5.01401855 -0.02770508 5.01401855 -1.07617188 5.02832031 C-4.21814435 5.0824191 -7.35869067 5.16598824 -10.5 5.25 C-11.57765625 5.26417969 -12.6553125 5.27835938 -13.765625 5.29296875 C-20.31781873 5.49273075 -25.60590784 6.06456881 -31 10 C-33.55049831 12.20890868 -33.55049831 12.20890868 -35 15 C-35.89624921 19.93864222 -36.11382725 25.3829988 -34.1171875 30.07421875 C-31.69734591 33.25526879 -28.61472636 34.87557233 -24.98608398 36.37109375 C-21.55602633 37.45724354 -18.13800698 37.57300527 -14.5625 37.6875 C-13.83095703 37.72166016 -13.09941406 37.75582031 -12.34570312 37.79101562 C-10.56430438 37.87251753 -8.78218251 37.93795523 -7 38 C-10.88253642 40.58835761 -13.44355052 40.41140495 -18.015625 40.30859375 C-22.81650486 39.81216769 -26.86454946 38.49428398 -31 36 C-33.91380475 33.34085705 -36.2345212 30.5309576 -38 27 C-38.5238576 21.74424835 -38.66505372 17.35473905 -36.3125 12.5625 C-32.09374821 7.88766693 -28.37170191 5.23611258 -22.3125 3.52734375 C-14.95712566 2.35638203 -7.42327892 2.79422122 0 3 C0 2.01 0 1.02 0 0 Z " fill="#34A7AA" transform="translate(625,513)" />
<path d="M0 0 C0.66 1.32 1.32 2.64 2 4 C1.46890625 4.79921875 0.9378125 5.5984375 0.390625 6.421875 C-5.09050241 14.94362784 -10.12272056 23.49963064 -10.3125 33.9375 C-10.16083515 37.02696923 -9.77478608 39.99770395 -9 43 C-10.484375 41.890625 -10.484375 41.890625 -12 40 C-12.328125 37.109375 -12.328125 37.109375 -12.25 33.75 C-12.22421875 32.59628906 -12.1984375 31.44257812 -12.171875 30.25390625 C-11.98744285 26.76227033 -11.63897579 23.43449485 -11 20 C-12.65 20.99 -14.3 21.98 -16 23 C-12.76230089 14.10817268 -6.33030307 6.88829331 0 0 Z " fill="#E4893C" transform="translate(135,518)" />
<path d="M0 0 C0.66 0.2165625 1.32 0.433125 2 0.65625 C18.7146584 5.35724768 37.02822758 3.58266102 54 1 C52 3 52 3 48.99609375 3.59765625 C47.82175781 3.75105469 46.64742187 3.90445313 45.4375 4.0625 C43.28782769 4.34739633 41.14059443 4.65342757 39 5 C38.67 5.33 38.34 5.66 38 6 C34.21633164 6.28461604 30.41806606 6.23200206 26.625 6.25 C25.57699219 6.270625 24.52898437 6.29125 23.44921875 6.3125 C15.03288483 6.35411352 7.93143885 4.64381295 0 2 C0 1.34 0 0.68 0 0 Z " fill="#FEF0D8" transform="translate(126,599)" />
<path d="M0 0 C4.50416844 3.67006318 6.76790201 8.74908096 9 14 C9 14.66 9 15.32 9 16 C16.02673515 15.49656013 23.01940909 14.95812032 30 14 C30 13.34 30 12.68 30 12 C32.64 12 35.28 12 38 12 C29.94616041 17.36922639 18.48240607 18.51012176 9 19 C7.4933028 16.2118978 5.99580196 13.41896042 4.5 10.625 C4.07074219 9.8309375 3.64148438 9.036875 3.19921875 8.21875 C2.79316406 7.45820312 2.38710937 6.69765625 1.96875 5.9140625 C1.40317383 4.8614624 1.40317383 4.8614624 0.82617188 3.78759766 C0 2 0 2 0 0 Z " fill="#2EA1A4" transform="translate(159,547)" />
<path d="M0 0 C1.02006889 0.00068733 1.02006889 0.00068733 2.06074524 0.00138855 C3.49209345 0.00440027 4.9234387 0.01225416 6.35473633 0.0246582 C8.55366513 0.0429928 10.75217437 0.04516722 12.95117188 0.04492188 C20.71069131 0.07232095 20.71069131 0.07232095 23.86328125 0.23046875 C24.35828125 0.72546875 24.35828125 0.72546875 24.86328125 1.23046875 C27.19146089 1.59807606 29.52511975 1.93288456 31.86328125 2.23046875 C32.35828125 3.71546875 32.35828125 3.71546875 32.86328125 5.23046875 C31.74050781 4.90304687 30.61773437 4.575625 29.4609375 4.23828125 C21.87012717 2.55143451 14.03212817 3.02058809 6.30078125 3.10546875 C4.70378165 3.11551787 3.10677593 3.12464031 1.50976562 3.1328125 C-2.37254881 3.15467484 -6.25456519 3.18909815 -10.13671875 3.23046875 C-10.46671875 3.89046875 -10.79671875 4.55046875 -11.13671875 5.23046875 C-11.13671875 4.24046875 -11.13671875 3.25046875 -11.13671875 2.23046875 C-7.45827054 -0.10258631 -4.2897626 -0.01386337 0 0 Z " fill="#FDEACF" transform="translate(313.13671875,416.76953125)" />
<path d="M0 0 C4.95 0 9.9 0 15 0 C15 0.66 15 1.32 15 2 C10.71 2 6.42 2 2 2 C2 10.58 2 19.16 2 28 C1.34 27.34 0.68 26.68 0 26 C-0.22705078 23.38623047 -0.22705078 23.38623047 -0.1953125 20.1171875 C-0.18886719 18.95058594 -0.18242188 17.78398438 -0.17578125 16.58203125 C-0.15902344 15.35871094 -0.14226563 14.13539063 -0.125 12.875 C-0.11597656 11.64394531 -0.10695313 10.41289063 -0.09765625 9.14453125 C-0.07402633 6.09627194 -0.03815439 3.04811211 0 0 Z " fill="#C3F3F4" transform="translate(565,507)" />
<path d="M0 0 C0.98802155 3.09534023 0.93523727 4.89693415 0.0625 8 C-2.52294134 19.7567704 -1.52298311 33.14248867 0 45 C-4.08147746 38.87778381 -4.38604541 32.66018488 -4.375 25.5 C-4.37628906 24.63084961 -4.37757813 23.76169922 -4.37890625 22.86621094 C-4.24842999 14.77964843 -2.59412504 7.64340414 0 0 Z " fill="#DDFCFC" transform="translate(139,451)" />
<path d="M0 0 C0.87869751 0.29148926 0.87869751 0.29148926 1.77514648 0.58886719 C0.23677941 1.24252118 -1.30574117 1.88640322 -2.84985352 2.52636719 C-3.70836914 2.88601563 -4.56688477 3.24566406 -5.45141602 3.61621094 C-13.50425944 6.44037715 -22.9560487 6.62381099 -31.28735352 4.98730469 C-37.6605678 3.1531529 -37.6605678 3.1531529 -40.22485352 0.58886719 C-38.74517027 0.72936236 -37.26610835 0.87641545 -35.78735352 1.02636719 C-34.55178711 1.14818359 -34.55178711 1.14818359 -33.29125977 1.27246094 C-32.6093457 1.376875 -31.92743164 1.48128906 -31.22485352 1.58886719 C-30.89485352 1.91886719 -30.56485352 2.24886719 -30.22485352 2.58886719 C-27.04625702 2.86989514 -23.85187673 2.82078343 -20.66235352 2.83886719 C-19.33880859 2.86980469 -19.33880859 2.86980469 -17.98852539 2.90136719 C-13.55326083 2.92759196 -9.95637746 2.69381004 -5.82250977 1.01074219 C-2.22485352 -0.41113281 -2.22485352 -0.41113281 0 0 Z " fill="#DF8F48" transform="translate(713.224853515625,547.4111328125)" />
<path d="M0 0 C0.33 0 0.66 0 1 0 C1.08636719 0.79664063 1.17273438 1.59328125 1.26171875 2.4140625 C2.04700976 9.41572488 2.04700976 9.41572488 5.1875 15.5625 C8.76928525 18.66671388 12.39172788 20.58125909 17.06665039 21.33178711 C19.19235286 21.51246324 21.30533238 21.61922382 23.4375 21.6875 C24.16904297 21.72166016 24.90058594 21.75582031 25.65429688 21.79101562 C27.43569562 21.87251753 29.21781749 21.93795523 31 22 C27.11746358 24.58835761 24.55644948 24.41140495 19.984375 24.30859375 C15.18349514 23.81216769 11.13545054 22.49428398 7 20 C4.08619525 17.34085705 1.7654788 14.5309576 0 11 C-0.07033769 9.12620395 -0.0843022 7.24998898 -0.0625 5.375 C-0.05347656 4.37210938 -0.04445313 3.36921875 -0.03515625 2.3359375 C-0.02355469 1.56507813 -0.01195312 0.79421875 0 0 Z " fill="#36A2A5" transform="translate(587,529)" />
<path d="M0 0 C0.33 0.66 0.66 1.32 1 2 C0.34 2 -0.32 2 -1 2 C-0.95875 3.175625 -0.9175 4.35125 -0.875 5.5625 C-0.8645015 8.55457318 -1.1441969 10.49567685 -2 13.4375 C-3.63967167 19.27883031 -3.51858964 25.11546515 -2 31 C-3.484375 29.890625 -3.484375 29.890625 -5 28 C-5.328125 25.109375 -5.328125 25.109375 -5.25 21.75 C-5.22421875 20.59628906 -5.1984375 19.44257812 -5.171875 18.25390625 C-4.98744285 14.76227033 -4.63897579 11.43449485 -4 8 C-6.475 9.485 -6.475 9.485 -9 11 C-7.87548273 8.0280615 -6.77706209 5.66559313 -5 3 C-4.01 3 -3.02 3 -2 3 C-2 2.34 -2 1.68 -2 1 C-1.34 0.67 -0.68 0.34 0 0 Z " fill="#E4873A" transform="translate(128,530)" />
<path d="M0 0 C3.73680173 3.52920163 6.06734837 6.60102255 9 11 C2.07 11 -4.86 11 -12 11 C-12.66 10.01 -13.32 9.02 -14 8 C-8.39 8 -2.78 8 3 8 C2.34 6.68 1.68 5.36 1 4 C0.63215869 2.6757713 0.28797019 1.34386088 0 0 Z " fill="#E49249" transform="translate(907,541)" />
<path d="M0 0 C1.32 0.33 2.64 0.66 4 1 C2.58521865 1.64995297 1.16808513 2.29478722 -0.25 2.9375 C-1.03890625 3.29714844 -1.8278125 3.65679688 -2.640625 4.02734375 C-8.63652227 6.49916233 -14.5808979 6.48083162 -21 6 C-24.12044631 5.24724156 -27.04682131 4.25286369 -30 3 C-30 2.67 -30 2.34 -30 2 C-27.69 2 -25.38 2 -23 2 C-23 2.66 -23 3.32 -23 4 C-20.47891897 3.85775413 -17.95819597 3.71129879 -15.4375 3.5625 C-14.73302734 3.52318359 -14.02855469 3.48386719 -13.30273438 3.44335938 C-8.8201459 3.17481721 -4.43706503 2.69383803 0 2 C0 1.34 0 0.68 0 0 Z " fill="#E19653" transform="translate(834,547)" />
<path d="M0 0 C0.33 0 0.66 0 1 0 C1.33 14.19 1.66 28.38 2 43 C3.32 42.01 4.64 41.02 6 40 C5.01 42.475 5.01 42.475 4 45 C2.68 45 1.36 45 0 45 C0 30.15 0 15.3 0 0 Z " fill="#E79955" transform="translate(869,471)" />
<path d="M0 0 C0.86407471 0.01571045 1.72814941 0.0314209 2.6184082 0.04760742 C4.02509766 0.06210937 4.02509766 0.06210937 5.46020508 0.0769043 C6.43666992 0.10204102 7.41313477 0.12717773 8.41918945 0.15307617 C9.40725586 0.16661133 10.39532227 0.18014648 11.41333008 0.1940918 C13.85333176 0.22945414 16.29223664 0.27880584 18.73168945 0.34057617 C18.73168945 1.00057617 18.73168945 1.66057617 18.73168945 2.34057617 C16.75168945 3.66057617 14.77168945 4.98057617 12.73168945 6.34057617 C12.73168945 5.02057617 12.73168945 3.70057617 12.73168945 2.34057617 C11.68368164 2.41276367 10.63567383 2.48495117 9.5559082 2.55932617 C8.17700555 2.65312907 6.7980991 2.74687616 5.41918945 2.84057617 C4.72889648 2.88827148 4.03860352 2.9359668 3.32739258 2.98510742 C0.45506587 3.17937106 -2.38844842 3.34057617 -5.26831055 3.34057617 C-3.57194884 1.23650521 -2.71849591 0.40816939 0 0 Z " fill="#E69D5F" transform="translate(895.268310546875,491.659423828125)" />
<path d="M0 0 C0.99 1.485 0.99 1.485 2 3 C1.03320312 2.76023437 1.03320312 2.76023437 0.046875 2.515625 C-9.86386448 0.83842293 -20.76163254 0.89405891 -30 5 C-30 4.01 -30 3.02 -30 2 C-9.45476563 -3.44448711 -9.45476563 -3.44448711 0 0 Z " fill="#FDEBD2" transform="translate(832,491)" />
<path d="M0 0 C0.33 0.99 0.66 1.98 1 3 C-2.33333333 6.33333333 -5.66666667 9.66666667 -9 13 C-9.56074219 13.60199219 -10.12148437 14.20398438 -10.69921875 14.82421875 C-11.12847656 15.21222656 -11.55773437 15.60023438 -12 16 C-12.66 16 -13.32 16 -14 16 C-14 16.66 -14 17.32 -14 18 C-14.66 17.67 -15.32 17.34 -16 17 C-11.07037669 10.7178043 -6.2879759 4.95010869 0 0 Z " fill="#28A6A9" transform="translate(169,409)" />
<path d="M0 0 C0.99 0.66 1.98 1.32 3 2 C1.00045254 2.04254356 -1.00041636 2.04080783 -3 2 C-3.33 1.67 -3.66 1.34 -4 1 C-5.70772358 0.91286169 -7.41898649 0.89299993 -9.12890625 0.90234375 C-10.16337891 0.90556641 -11.19785156 0.90878906 -12.26367188 0.91210938 C-13.35228516 0.92048828 -14.44089844 0.92886719 -15.5625 0.9375 C-16.65498047 0.94201172 -17.74746094 0.94652344 -18.87304688 0.95117188 C-21.58208495 0.96300174 -24.29101599 0.97948457 -27 1 C-19.25987972 -4.16008019 -8.48841812 -2.77802775 0 0 Z " fill="#BDEDEE" transform="translate(237,437)" />
<path d="M0 0 C4.18659858 3.82774727 7.37820862 7.94607874 10 13 C10 13.66 10 14.32 10 15 C3.73 15 -2.54 15 -9 15 C-9 14.67 -9 14.34 -9 14 C-4.05 13.67 0.9 13.34 6 13 C4.26073202 8.15397138 4.26073202 8.15397138 1.875 4.8125 C0 2 0 2 0 0 Z " fill="#3FA9AB" transform="translate(459,537)" />
<path d="M0 0 C2.01964199 -0.07244053 4.04167124 -0.08377188 6.0625 -0.0625 C7.16722656 -0.05347656 8.27195313 -0.04445313 9.41015625 -0.03515625 C10.26480469 -0.02355469 11.11945313 -0.01195312 12 0 C11.67 0.99 11.34 1.98 11 3 C10.67 2.67 10.34 2.34 10 2 C4.46649264 2.51236179 -0.93838162 3.51745048 -6.38671875 4.59765625 C-8.97009601 4.99539595 -11.39094529 5.07051499 -14 5 C-13.360625 4.690625 -12.72125 4.38125 -12.0625 4.0625 C-10.06389179 3.1654837 -10.06389179 3.1654837 -9 2 C-6.9427083 1.68076508 -4.88386479 1.48838648 -2.8125 1.28125 C-1.9153125 1.14203125 -1.9153125 1.14203125 -1 1 C-0.67 0.67 -0.34 0.34 0 0 Z " fill="#E38F46" transform="translate(179,597)" />
<path d="M0 0 C5.28 0 10.56 0 16 0 C16.52099947 6.51249335 16.52099947 6.51249335 16 10 C14.24049106 12.66801356 12.89217994 13.38705349 10 15 C7.625 14.8125 7.625 14.8125 6 14 C6.94875 13.5875 7.8975 13.175 8.875 12.75 C11.97530684 11.30125254 11.97530684 11.30125254 13.3125 9.1875 C14.14797621 6.5291666 14.54189707 3.74861759 15 1 C10.05 1 5.1 1 0 1 C0 0.67 0 0.34 0 0 Z " fill="#309FA2" transform="translate(611,526)" />
<path d="M0 0 C0.99 0.495 0.99 0.495 2 1 C4.01263995 5.63047934 4.25021965 9.90474296 4.125 14.875 C4.11597656 15.56335938 4.10695313 16.25171875 4.09765625 16.9609375 C4.07432513 18.64077838 4.03846326 20.32043746 4 22 C3.34 22.33 2.68 22.66 2 23 C1.93941406 22.01 1.87882812 21.02 1.81640625 20 C1.39539534 13.30533362 0.94925871 6.64481097 0 0 Z " fill="#1D9DA1" transform="translate(263,462)" />
<path d="M0 0 C0.66 0 1.32 0 2 0 C2 0.99 2 1.98 2 3 C3.07378906 2.96519531 4.14757812 2.93039062 5.25390625 2.89453125 C6.69008839 2.86637082 8.12628762 2.83907309 9.5625 2.8125 C10.26697266 2.78736328 10.97144531 2.76222656 11.69726562 2.73632812 C16.87395467 2.664761 20.4109381 3.5607689 25 6 C25.33 6.66 25.66 7.32 26 8 C25.20078125 7.79503906 24.4015625 7.59007812 23.578125 7.37890625 C16.03701835 5.52903384 8.75265964 4.40509393 1 4 C0.67 2.68 0.34 1.36 0 0 Z " fill="#E29652" transform="translate(303,420)" />
<path d="M0 0 C0.99 0.33 1.98 0.66 3 1 C2.38511719 1.94101562 1.77023438 2.88203125 1.13671875 3.8515625 C0.32014844 5.1092685 -0.49624861 6.367087 -1.3125 7.625 C-1.71662109 8.24246094 -2.12074219 8.85992187 -2.53710938 9.49609375 C-4.95278534 13.22762573 -7.08744372 16.97682336 -9 21 C-9.33 21 -9.66 21 -10 21 C-10.1875 18.75 -10.1875 18.75 -10 16 C-8.5625 13.875 -8.5625 13.875 -7 12 C-6.67 11.01 -6.34 10.02 -6 9 C-5.34 9 -4.68 9 -4 9 C-4 8.01 -4 7.02 -4 6 C-3.34 6 -2.68 6 -2 6 C-2 5.01 -2 4.02 -2 3 C-1.34 3 -0.68 3 0 3 C0 2.01 0 1.02 0 0 Z " fill="#DBFBFB" transform="translate(153,422)" />
<path d="M0 0 C-0.33 0.99 -0.66 1.98 -1 3 C-6.61 3 -12.22 3 -18 3 C-18 2.34 -18 1.68 -18 1 C-15.75013201 0.83156069 -13.50009983 0.66531346 -11.25 0.5 C-9.37054687 0.36078125 -9.37054687 0.36078125 -7.453125 0.21875 C-4.97265229 0.06161598 -2.48544483 0 0 0 Z " fill="#FDF2DB" transform="translate(703,552)" />
<path d="M0 0 C0.81533203 -0.01224609 1.63066406 -0.02449219 2.47070312 -0.03710938 C3.64729492 -0.04000977 3.64729492 -0.04000977 4.84765625 -0.04296875 C5.56058838 -0.04707764 6.27352051 -0.05118652 7.00805664 -0.05541992 C8.9375 0.1875 8.9375 0.1875 11.9375 2.1875 C10.73351562 2.17589844 9.52953125 2.16429687 8.2890625 2.15234375 C6.71354321 2.14296566 5.13802225 2.13386548 3.5625 2.125 C2.7684375 2.11662109 1.974375 2.10824219 1.15625 2.09960938 C-3.08642222 1.95709849 -3.08642222 1.95709849 -7.0625 3.1875 C-9.7348621 3.32165472 -12.38500488 3.23068541 -15.0625 3.1875 C-11.01408937 -0.86091063 -5.3896071 0.00428086 0 0 Z " fill="#E18C44" transform="translate(820.0625,491.8125)" />
<path d="M0 0 C5.34844008 0.53484401 9.35796103 2.46690767 14 5 C13.625 7.4375 13.625 7.4375 13 10 C12.01 10.495 12.01 10.495 11 11 C10.7525 10.05125 10.505 9.1025 10.25 8.125 C9.31336088 4.99806567 9.31336088 4.99806567 7.25 3.6875 C4.52211126 2.85397844 1.82393659 2.38508226 -1 2 C-0.67 1.34 -0.34 0.68 0 0 Z " fill="#E08F49" transform="translate(832,531)" />
<path d="M0 0 C0.33 1.32 0.66 2.64 1 4 C0.67 4.33 0.34 4.66 0 5 C-0.23527773 7.34987262 -0.41386417 9.70556039 -0.5625 12.0625 C-0.64628906 13.35285156 -0.73007812 14.64320313 -0.81640625 15.97265625 C-0.87699219 16.97167969 -0.93757812 17.97070312 -1 19 C-1.66 18.34 -2.32 17.68 -3 17 C-3.30078125 14.35546875 -3.30078125 14.35546875 -3.3125 11.1875 C-3.32925781 10.14980469 -3.34601562 9.11210938 -3.36328125 8.04296875 C-2.95916463 4.65794892 -1.93870922 2.76739232 0 0 Z " fill="#FDEBCE" transform="translate(808,511)" />
<path d="M0 0 C0.33 0 0.66 0 1 0 C1.33 6.6 1.66 13.2 2 20 C-0.69061529 15.96407706 -1.13776194 13.24744039 -1.125 8.5 C-1.12757813 7.5409375 -1.13015625 6.581875 -1.1328125 5.59375 C-1 3 -1 3 0 0 Z " fill="#FBE7CB" transform="translate(671,504)" />
<path d="M0 0 C6.81598387 -0.33278764 11.92122066 -0.24201565 18 3 C18 3.66 18 4.32 18 5 C16.88625 4.690625 15.7725 4.38125 14.625 4.0625 C9.79490988 2.84199336 4.95709931 2.38600363 0 2 C0 1.34 0 0.68 0 0 Z " fill="#E28D42" transform="translate(688,487)" />
<path d="M0 0 C0.66 0.33 1.32 0.66 2 1 C1.67 1.61875 1.34 2.2375 1 2.875 C-0.14193235 4.91018344 -0.14193235 4.91018344 0 7 C4.455 8.98 4.455 8.98 9 11 C5 12 5 12 1.3125 10.8125 C0.219375 10.214375 -0.87375 9.61625 -2 9 C-2.8125 6.875 -2.8125 6.875 -3 5 C-3.66 4.67 -4.32 4.34 -5 4 C-3.35 2.68 -1.7 1.36 0 0 Z " fill="#FCEBD2" transform="translate(308,535)" />
<path d="M0 0 C0.33 0 0.66 0 1 0 C1.49914707 6.73848545 0.19940966 12.0098644 -3 18 C-3.66 18.33 -4.32 18.66 -5 19 C-4.35561067 16.39546825 -3.7095496 13.7913709 -3.0625 11.1875 C-2.88009766 10.44951172 -2.69769531 9.71152344 -2.50976562 8.95117188 C-1.7577385 5.92939016 -0.98514427 2.95543282 0 0 Z " fill="#FCE6C8" transform="translate(352,533)" />
<path d="M0 0 C0.33 0 0.66 0 1 0 C1.66 7.92 2.32 15.84 3 24 C0.78172472 20.67258708 -0.49032867 17.93543686 -1 14 C-0.87173799 9.31074105 -0.47883797 4.66543486 0 0 Z " fill="#C2F4F4" transform="translate(136,472)" />
<path d="M0 0 C0.66 1.32 1.32 2.64 2 4 C0.68 5.65 -0.64 7.3 -2 9 C-2 8.01 -2 7.02 -2 6 C-2.66 6 -3.32 6 -4 6 C-4.33 6.99 -4.66 7.98 -5 9 C-5.66 8.67 -6.32 8.34 -7 8 C-4.69 5.36 -2.38 2.72 0 0 Z " fill="#DD8F4C" transform="translate(135,518)" />
<path d="M0 0 C0.66 0 1.32 0 2 0 C0.49687867 3.82612703 -1.62801551 5.70091967 -5 8 C-8.3125 9.25 -8.3125 9.25 -11 10 C-7.50794062 6.40523299 -3.95966325 3.07973809 0 0 Z " fill="#FDEFD8" transform="translate(328,560)" />
<path d="M0 0 C0.89203125 0.19464844 1.7840625 0.38929688 2.703125 0.58984375 C3.37859375 0.74582031 4.0540625 0.90179688 4.75 1.0625 C4.75 1.3925 4.75 1.7225 4.75 2.0625 C-0.53 2.0625 -5.81 2.0625 -11.25 2.0625 C-9.25 0.0625 -9.25 0.0625 -7.453125 -0.62109375 C-4.74048525 -1.01067499 -2.66879282 -0.59696682 0 0 Z " fill="#CAEFEF" transform="translate(619.25,489.9375)" />
<path d="M0 0 C0.33 0.99 0.66 1.98 1 3 C-2.3 6.3 -5.6 9.6 -9 13 C-9.66 12.67 -10.32 12.34 -11 12 C-10.54109375 11.55269531 -10.0821875 11.10539062 -9.609375 10.64453125 C-6.16447701 7.25029352 -2.92744915 3.86423288 0 0 Z " fill="#DDFAFA" transform="translate(309,488)" />
<path d="M0 0 C0.66 0 1.32 0 2 0 C1.25 1.875 1.25 1.875 0 4 C-0.680625 4.309375 -1.36125 4.61875 -2.0625 4.9375 C-2.701875 5.288125 -3.34125 5.63875 -4 6 C-4.81171228 8.55519921 -4.81171228 8.55519921 -5 11 C-5.66 11 -6.32 11 -7 11 C-6.03870206 7.24219895 -5.072484 5.0833566 -2.5 2.125 C-1.2625 1.073125 -1.2625 1.073125 0 0 Z " fill="#FEEED7" transform="translate(679,493)" />
<path d="M0 0 C0.33 0.99 0.66 1.98 1 3 C0.04956626 4.33897583 -0.91059147 5.67105427 -1.875 7 C-2.40867187 7.7425 -2.94234375 8.485 -3.4921875 9.25 C-3.98976563 9.8275 -4.48734375 10.405 -5 11 C-5.66 11 -6.32 11 -7 11 C-7 11.66 -7 12.32 -7 13 C-7.66 12.67 -8.32 12.34 -9 12 C-6.03 8.04 -3.06 4.08 0 0 Z " fill="#E4934D" transform="translate(330,476)" />
<path d="M0 0 C0.66 0 1.32 0 2 0 C1.4375 1.875 1.4375 1.875 0 4 C-5.78444882 6.24950787 -5.78444882 6.24950787 -9.2265625 5.54296875 C-9.81179688 5.36378906 -10.39703125 5.18460938 -11 5 C-9.93458984 4.58427734 -9.93458984 4.58427734 -8.84765625 4.16015625 C-7.46900391 3.61681641 -7.46900391 3.61681641 -6.0625 3.0625 C-5.14597656 2.70285156 -4.22945312 2.34320312 -3.28515625 1.97265625 C-1.07581467 1.2003782 -1.07581467 1.2003782 0 0 Z " fill="#FDEBD3" transform="translate(716,546)" />
<path d="M0 0 C0 0.99 0 1.98 0 3 C-0.66 3 -1.32 3 -2 3 C-2.33 3.99 -2.66 4.98 -3 6 C-4.8125 7.25 -4.8125 7.25 -7 8 C-9.25 7.625 -9.25 7.625 -11 7 C-8.62463329 5.41642219 -6.23494336 3.88406307 -3.8125 2.375 C-2.73935547 1.70597656 -2.73935547 1.70597656 -1.64453125 1.0234375 C-1.10183594 0.68570312 -0.55914062 0.34796875 0 0 Z " fill="#21A0A3" transform="translate(249,509)" />
<path d="M0 0 C1.76462683 3.08809695 2 4.23312136 2 8 C2.66 8 3.32 8 4 8 C4 10.64 4 13.28 4 16 C1.15346747 11.73020121 0.06130901 7.68599767 -0.125 2.5625 C-0.08375 1.716875 -0.0425 0.87125 0 0 Z " fill="#2FA3A6" transform="translate(139,492)" />
<path d="M0 0 C0.66 0 1.32 0 2 0 C1.48474397 5.28137429 -0.25477117 8.57221156 -3 13 C-3.33 11.68 -3.66 10.36 -4 9 C-3.34 9 -2.68 9 -2 9 C-1.7834375 7.88625 -1.7834375 7.88625 -1.5625 6.75 C-1.09812508 4.47972261 -0.58136431 2.24240521 0 0 Z " fill="#DEFCFC" transform="translate(261,487)" />
<path d="M0 0 C5.37992836 0.33990833 9.53273547 0.68557793 14 4 C14 4.66 14 5.32 14 6 C9.27775484 4.46527032 4.64144669 2.76054874 0 1 C0 0.67 0 0.34 0 0 Z " fill="#FCE8CE" transform="translate(704,474)" />
<path d="M0 0 C0 0.66 0 1.32 0 2 C-1.41328129 2.81837442 -2.83078346 3.62946219 -4.25 4.4375 C-5.43335938 5.11619141 -5.43335938 5.11619141 -6.640625 5.80859375 C-8.78833468 6.89311602 -10.65205061 7.53148716 -13 8 C-9.81692689 4.43495812 -5.03655764 0 0 0 Z " fill="#2CA4A6" transform="translate(186,399)" />
<path d="M0 0 C0.99 0.4021875 0.99 0.4021875 2 0.8125 C5.64939067 2.25705047 9.32245433 3.62871178 13 5 C11.02 5.99 11.02 5.99 9 7 C6.03 5.02 3.06 3.04 0 1 C0 0.67 0 0.34 0 0 Z " fill="#2EA1A4" transform="translate(483,544)" />
<path d="M0 0 C0.66 0.33 1.32 0.66 2 1 C1.01 2.485 1.01 2.485 0 4 C1.65 4 3.3 4 5 4 C5.33 4.99 5.66 5.98 6 7 C3.03 6.01 0.06 5.02 -3 4 C-3 3.01 -3 2.02 -3 1 C-2.01 0.67 -1.02 0.34 0 0 Z " fill="#E1924D" transform="translate(311,539)" />
<path d="M0 0 C-0.33 2.31 -0.66 4.62 -1 7 C-1.33 5.68 -1.66 4.36 -2 3 C-4.64 3.33 -7.28 3.66 -10 4 C-6.86268382 1.90845588 -3.85464592 0 0 0 Z " fill="#DE9553" transform="translate(355,522)" />
<path d="M0 0 C0.66 0 1.32 0 2 0 C0.84095741 3.24531925 -0.23865902 4.17183449 -3.125 6.25 C-4.548125 7.11625 -4.548125 7.11625 -6 8 C-6.66 7.67 -7.32 7.34 -8 7 C-6.71372289 5.82739389 -5.42080217 4.6620717 -4.125 3.5 C-3.04605469 2.52546875 -3.04605469 2.52546875 -1.9453125 1.53125 C-1.30335938 1.0259375 -0.66140625 0.520625 0 0 Z " fill="#E48E42" transform="translate(296,513)" />
<path d="M0 0 C0.99 0.33 1.98 0.66 3 1 C1.02 3.97 -0.96 6.94 -3 10 C-3.33 10 -3.66 10 -4 10 C-4 8.02 -4 6.04 -4 4 C-3.01 3.67 -2.02 3.34 -1 3 C-0.67 2.01 -0.34 1.02 0 0 Z " fill="#FEF3DD" transform="translate(793,500)" />
<path d="M0 0 C0.66 0.33 1.32 0.66 2 1 C-0.31 3.64 -2.62 6.28 -5 9 C-5.99 8.67 -6.98 8.34 -8 8 C-5.36 5.36 -2.72 2.72 0 0 Z " fill="#E0FBFB" transform="translate(200,442)" />
<path d="M0 0 C0.33 1.32 0.66 2.64 1 4 C-0.28965176 5.37562854 -1.62689293 6.70766393 -3 8 C-3.66 8 -4.32 8 -5 8 C-5 8.66 -5 9.32 -5 10 C-5.66 9.67 -6.32 9.34 -7 9 C-4.69 6.03 -2.38 3.06 0 0 Z " fill="#FDEDD5" transform="translate(242,619)" />
<path d="M0 0 C0.33 0.66 0.66 1.32 1 2 C-0.28062485 3.7074998 -1.61767557 5.37373596 -3 7 C-3.66 7 -4.32 7 -5 7 C-5.33 7.99 -5.66 8.98 -6 10 C-7.32 9.67 -8.64 9.34 -10 9 C-9.52949219 8.68546875 -9.05898438 8.3709375 -8.57421875 8.046875 C-5.11997567 5.67252986 -2.27221496 3.60881199 0 0 Z " fill="#D3F7F7" transform="translate(533,539)" />
<path d="M0 0 C0.66 0.33 1.32 0.66 2 1 C1.690625 1.5775 1.38125 2.155 1.0625 2.75 C0.07416636 4.84294184 -0.5168613 6.74535275 -1 9 C-1.99 7.68 -2.98 6.36 -4 5 C-3.67 4.01 -3.34 3.02 -3 2 C-2.01 1.34 -1.02 0.68 0 0 Z " fill="#D1F6F7" transform="translate(457,523)" />
<path d="M0 0 C1.32 0 2.64 0 4 0 C4 0.66 4 1.32 4 2 C6.31 2.66 8.62 3.32 11 4 C10.01 4.99 9.02 5.98 8 7 C6.66382648 6.02471263 5.3311249 5.04466681 4 4.0625 C3.2575 3.51722656 2.515 2.97195313 1.75 2.41015625 C1.1725 1.94480469 0.595 1.47945313 0 1 C0 0.67 0 0.34 0 0 Z " fill="#E49552" transform="translate(826,507)" />
<path d="M0 0 C-0.33 0.99 -0.66 1.98 -1 3 C-2.41377782 3.36552803 -3.83120576 3.71695495 -5.25 4.0625 C-6.03890625 4.25972656 -6.8278125 4.45695313 -7.640625 4.66015625 C-10.10394822 5.01497267 -11.65604132 4.76877544 -14 4 C-12.0429132 3.32968281 -10.08428887 2.66385317 -8.125 2 C-7.03445313 1.62875 -5.94390625 1.2575 -4.8203125 0.875 C-2 0 -2 0 0 0 Z " fill="#FDE9CD" transform="translate(279,590)" />
<path d="M0 0 C0.33 0.99 0.66 1.98 1 3 C-1.31 4.98 -3.62 6.96 -6 9 C-6.66 8.67 -7.32 8.34 -8 8 C-5.36 5.36 -2.72 2.72 0 0 Z " fill="#E2914B" transform="translate(889,496)" />
<path d="M0 0 C-3 2 -3 2 -5.48046875 2.1953125 C-6.37378906 2.17210937 -7.26710937 2.14890625 -8.1875 2.125 C-9.08855469 2.10695313 -9.98960937 2.08890625 -10.91796875 2.0703125 C-11.60503906 2.04710937 -12.29210937 2.02390625 -13 2 C-8.53448096 -0.31790713 -4.94391187 -1.64797062 0 0 Z " fill="#E48F46" transform="translate(196,571)" />
<path d="M0 0 C1.875 0.75 1.875 0.75 4 2 C5.25 4.125 5.25 4.125 6 6 C5.34 6 4.68 6 4 6 C3.67 5.34 3.34 4.68 3 4 C2.401875 4.165 1.80375 4.33 1.1875 4.5 C-1 5 -1 5 -4 5 C-2.68 3.35 -1.36 1.7 0 0 Z " fill="#FDEBD0" transform="translate(876,529)" />
<path d="M0 0 C1.1577506 3.47325181 1.06866652 6.36067448 1 10 C-0.5 8.8125 -0.5 8.8125 -2 7 C-2.3125 4.4375 -2.3125 4.4375 -2 2 C-1.34 1.34 -0.68 0.68 0 0 Z " fill="#D4F8F8" transform="translate(606,529)" />
<path d="M0 0 C0.66 0 1.32 0 2 0 C0.71480435 2.86697492 -0.57129254 4.97607712 -3 7 C-3.66 7 -4.32 7 -5 7 C-3.71480435 4.13302508 -2.42870746 2.02392288 0 0 Z " fill="#E38E44" transform="translate(798,498)" />
<path d="M0 0 C2.64 0.33 5.28 0.66 8 1 C8.33 1.99 8.66 2.98 9 4 C9.66 4 10.32 4 11 4 C10.67 4.66 10.34 5.32 10 6 C6.7 4.35 3.4 2.7 0 1 C0 0.67 0 0.34 0 0 Z " fill="#FDE7CB" transform="translate(347,422)" />
<path d="M0 0 C2.31 0.33 4.62 0.66 7 1 C7 1.66 7 2.32 7 3 C8.32 3.33 9.64 3.66 11 4 C7.39340156 4.25162315 5.37119719 4.1936681 2.125 2.5 C1.42375 2.005 0.7225 1.51 0 1 C0 0.67 0 0.34 0 0 Z " fill="#E39852" transform="translate(215,630)" />
<path d="M0 0 C2.64752004 2.57784846 4.94432065 4.91648098 7 8 C5.35 7.67 3.7 7.34 2 7 C1.34 4.69 0.68 2.38 0 0 Z " fill="#FEF1D8" transform="translate(791,538)" />
<path d="M0 0 C2.64 0.66 5.28 1.32 8 2 C7.01 3.485 7.01 3.485 6 5 C2.83884224 3.63016497 2.0072908 3.0109362 0 0 Z " fill="#E19250" transform="translate(708,493)" />
<path d="M0 0 C0.66 0 1.32 0 2 0 C2.1875 2.25 2.1875 2.25 2 5 C0.5 7.3125 0.5 7.3125 -1 9 C-0.67 6.03 -0.34 3.06 0 0 Z " fill="#2EA6AA" transform="translate(141,448)" />
</svg>
